<svg version="1.1" viewBox="0 0 252 83" xmlns="http://www.w3.org/2000/svg" xmlns:xlink="http://www.w3.org/1999/xlink" id="Layer_1" overflow="hidden"><g><path d=" M 141.4 37.2 C 141.4 37 141.5 36.8 141.8 36.8 L 148.8 36.8 C 149 36.8 149.2 36.9 149.2 37.2 L 149.2 38.4 C 149.2 38.6 149.1 38.7 148.8 38.7 L 143.6 38.7 L 143.6 42 L 148.2 42 C 148.4 42 148.6 42.1 148.6 42.3 L 148.6 43.5 C 148.6 43.7 148.5 43.8 148.2 43.8 L 143.6 43.8 L 143.6 47.5 L 148.9 47.5 C 149.1 47.5 149.2 47.6 149.2 47.9 L 149.2 49.1 C 149.2 49.3 149.1 49.4 148.8 49.4 L 141.7 49.4 C 141.4 49.4 141.3 49.3 141.3 49.1 L 141.3 37.2 Z" fill="#FFFFFF"/><path d=" M 158.8 49.4 L 157.4 49.4 C 157.1 49.4 157 49.3 157 49 L 157 48.4 L 157 48.4 C 156.3 48.9 155 49.5 153.8 49.5 C 151.2 49.5 151 48 151 46 L 151 40.4 C 151 40.2 151.1 40 151.4 40 L 152.8 40 C 153 40 153.1 40.1 153.1 40.4 L 153.1 45.7 C 153.1 46.8 153.3 47.6 154.5 47.6 C 155.3 47.6 156.6 47 157.1 46.7 L 157.1 40.3 C 157.1 40.1 157.2 39.9 157.5 39.9 L 158.9 39.9 C 159.2 39.9 159.3 40 159.3 40.3 L 159.3 48.9 C 159.2 49.3 159.1 49.4 158.8 49.4 Z" fill="#FFFFFF"/><path d=" M 163.6 49.1 C 163.6 49.3 163.5 49.5 163.2 49.5 L 161.8 49.5 C 161.5 49.5 161.4 49.4 161.4 49.1 L 161.4 40.5 C 161.4 40.3 161.5 40.1 161.8 40.1 L 163.2 40.1 C 163.5 40.1 163.6 40.3 163.6 40.5 L 163.6 41.3 L 163.6 41.3 C 164.2 40.8 165.5 40.1 166.4 39.9 C 166.6 39.8 166.8 39.9 166.9 40.2 L 167 41.5 C 167 41.8 167 41.9 166.6 42 C 165.5 42.2 164.2 42.6 163.5 42.9 L 163.5 49.1 Z" fill="#FFFFFF"/><path d=" M 172 49.6 C 168.2 49.6 167.9 46.8 167.9 44.6 C 167.9 42.8 168.3 39.9 172 39.9 C 175.7 39.9 176.2 42.4 176.2 44.6 C 176.2 46.8 175.9 49.6 172 49.6 Z M 172 41.7 C 170.4 41.7 170 42.7 170 44.7 C 170 46.7 170.4 47.7 172 47.7 C 173.7 47.7 174.1 46.7 174.1 44.7 C 174.1 42.7 173.8 41.7 172 41.7 Z" fill="#FFFFFF"/><path d=" M 182.5 49.6 C 181.9 49.6 181 49.5 180.1 49.2 L 180.1 49.2 L 180.1 52.5 C 180.1 52.7 180 52.9 179.7 52.9 L 178.3 52.9 C 178 52.9 177.9 52.8 177.9 52.5 L 177.9 40.5 C 177.9 40.3 178 40.1 178.3 40.1 L 179.7 40.1 C 180 40.1 180 40.3 180 40.5 L 180 41 L 180.1 41 C 180.8 40.5 182 39.9 183.1 39.9 C 185.6 39.9 186.2 41.8 186.2 44.7 C 186.3 47.8 185.5 49.6 182.5 49.6 Z M 182.7 41.8 C 181.9 41.8 180.7 42.4 180.2 42.7 L 180.2 47.5 C 181.1 47.7 181.7 47.8 182.4 47.8 C 183.8 47.8 184.2 47.1 184.2 44.7 C 184.1 42.3 183.7 41.8 182.7 41.8 Z" fill="#FFFFFF"/><path d=" M 189.9 45.3 C 190 47.2 190.6 47.8 192.2 47.8 C 192.9 47.8 194 47.7 194.7 47.6 C 195 47.6 195.2 47.6 195.2 47.9 L 195.3 48.5 C 195.4 48.8 195.3 48.9 195 49.1 C 194.3 49.4 192.9 49.6 191.9 49.6 C 188.3 49.6 187.7 47.3 187.7 44.8 C 187.7 43 188 39.9 191.8 39.9 C 195.2 39.9 195.8 42.1 195.9 44.2 C 195.9 44.9 195.7 45.4 195 45.4 L 189.9 45.4 Z M 190 43.9 L 193.8 43.9 C 193.8 42.7 193.5 41.6 191.9 41.6 C 190.4 41.6 190.1 42.5 190 43.9 Z" fill="#FFFFFF"/><path d=" M 203.5 48.3 C 202.5 49 201.3 49.5 200 49.5 C 198 49.5 197.4 48.4 197.4 46.8 C 197.4 44.6 198.6 43.6 201 43.6 L 203.4 43.6 L 203.4 43.1 C 203.4 42 203 41.6 201.4 41.6 C 200.8 41.6 199.6 41.7 198.8 41.8 C 198.4 41.9 198.3 41.8 198.3 41.6 L 198.1 40.9 C 198.1 40.7 198.1 40.5 198.5 40.3 C 199.3 40 200.8 39.9 201.7 39.9 C 205 39.9 205.4 41.3 205.4 43.4 L 205.4 47.1 C 205.4 47.9 205.5 47.9 206.1 48 C 206.4 48 206.5 48.1 206.5 48.3 L 206.5 49 C 206.5 49.2 206.4 49.3 206 49.4 C 205.7 49.5 205.4 49.5 205.1 49.5 C 204.3 49.5 203.8 49.2 203.5 48.3 L 203.5 48.3 Z M 203.4 45.2 L 201.1 45.2 C 200.1 45.2 199.5 45.5 199.5 46.8 C 199.5 47.6 199.8 47.9 200.7 47.9 C 201.5 47.9 202.7 47.4 203.4 47 L 203.4 45.2 Z" fill="#FFFFFF"/><path d=" M 215.6 49.4 L 214.2 49.4 C 214 49.4 213.8 49.3 213.8 49 L 213.8 43.7 C 213.8 42.6 213.5 41.8 212.4 41.8 C 211.6 41.8 210.3 42.4 209.8 42.7 L 209.8 49.1 C 209.8 49.3 209.7 49.5 209.4 49.5 L 208 49.5 C 207.7 49.5 207.6 49.4 207.6 49.1 L 207.6 40.5 C 207.6 40.3 207.7 40.1 208 40.1 L 209.4 40.1 C 209.7 40.1 209.8 40.2 209.8 40.5 L 209.8 41 C 209.8 41 209.8 41 209.9 41 C 210.6 40.5 211.9 39.9 213.1 39.9 C 215.7 39.9 215.9 41.6 215.9 43.5 L 215.9 49 C 216 49.3 215.9 49.4 215.6 49.4 Z" fill="#FFFFFF"/><path d=" M 146.5 56.7 C 147.4 56.7 149 56.8 150 57.3 C 150.3 57.4 150.4 57.6 150.4 57.9 L 150.2 58.7 C 150.1 58.9 150 59 149.7 59 C 148.8 58.9 147.6 58.8 146.6 58.8 C 144 58.8 143.6 60.9 143.6 63.4 C 143.6 65.9 144.1 67.9 146.6 67.9 C 147.7 67.9 148.6 67.8 149.7 67.7 C 150.1 67.7 150.1 67.8 150.2 68 L 150.4 68.7 C 150.5 69 150.4 69.2 150.1 69.3 C 149.2 69.7 147.5 69.9 146.6 69.9 C 142.4 69.9 141.5 66.8 141.5 63.5 C 141.3 60 142.1 56.7 146.5 56.7 Z" fill="#FFFFFF"/><path d=" M 155.8 69.6 C 152 69.6 151.7 66.8 151.7 64.6 C 151.7 62.8 152.1 59.9 155.8 59.9 C 159.5 59.9 160 62.4 160 64.6 C 160 66.8 159.7 69.6 155.8 69.6 Z M 155.8 61.8 C 154.2 61.8 153.8 62.8 153.8 64.8 C 153.8 66.8 154.2 67.8 155.8 67.8 C 157.5 67.8 157.9 66.8 157.9 64.8 C 157.8 62.8 157.5 61.8 155.8 61.8 Z" fill="#FFFFFF"/><path d=" M 175.1 69.4 L 173.7 69.4 C 173.4 69.4 173.3 69.3 173.3 69 L 173.3 63.6 C 173.3 62.2 173 61.8 172 61.8 C 171.3 61.8 170.2 62.4 169.6 62.7 C 169.6 62.9 169.6 63.2 169.6 63.7 L 169.6 69.1 C 169.6 69.3 169.5 69.5 169.2 69.5 L 167.8 69.5 C 167.6 69.5 167.5 69.4 167.5 69.1 L 167.5 63.6 C 167.5 62.4 167.2 61.9 166.2 61.9 C 165.5 61.9 164.5 62.4 163.7 62.8 L 163.7 69.2 C 163.7 69.4 163.6 69.6 163.3 69.6 L 161.9 69.6 C 161.7 69.6 161.6 69.5 161.6 69.2 L 161.6 60.6 C 161.6 60.4 161.7 60.2 161.9 60.2 L 163.3 60.2 C 163.6 60.2 163.7 60.4 163.7 60.6 L 163.7 61.2 L 163.7 61.2 C 164.4 60.7 165.5 60.1 166.5 60.1 C 167.6 60.1 168.5 60.3 169.1 61.4 C 170.1 60.7 171.2 60.1 172.4 60.1 C 174.9 60.1 175.2 61.7 175.2 63.6 L 175.2 69.2 C 175.5 69.3 175.4 69.4 175.1 69.4 Z" fill="#FFFFFF"/><path d=" M 190.8 69.4 L 189.4 69.4 C 189.1 69.4 189 69.3 189 69 L 189 63.6 C 189 62.2 188.7 61.8 187.7 61.8 C 187 61.8 185.9 62.4 185.3 62.7 C 185.3 62.9 185.3 63.2 185.3 63.7 L 185.3 69.1 C 185.3 69.3 185.2 69.5 184.9 69.5 L 183.5 69.5 C 183.3 69.5 183.2 69.4 183.2 69.1 L 183.2 63.6 C 183.2 62.4 182.9 61.9 181.9 61.9 C 181.2 61.9 180.2 62.4 179.4 62.8 L 179.4 69.2 C 179.4 69.4 179.3 69.6 179 69.6 L 177.6 69.6 C 177.4 69.6 177.3 69.5 177.3 69.2 L 177.3 60.6 C 177.3 60.4 177.4 60.2 177.6 60.2 L 179 60.2 C 179.3 60.2 179.4 60.4 179.4 60.6 L 179.4 61.2 L 179.4 61.2 C 180.1 60.7 181.2 60.1 182.2 60.1 C 183.3 60.1 184.2 60.3 184.8 61.4 C 185.8 60.7 186.9 60.1 188.1 60.1 C 190.6 60.1 190.9 61.7 190.9 63.6 L 190.9 69.2 C 191.1 69.3 191.1 69.4 190.8 69.4 Z" fill="#FFFFFF"/><path d=" M 194.5 58.8 C 193.5 58.8 193.4 58.2 193.4 57.7 C 193.4 57.1 193.6 56.6 194.5 56.6 C 195.4 56.6 195.6 57 195.6 57.7 C 195.6 58.2 195.5 58.8 194.5 58.8 Z M 195.5 69.1 C 195.5 69.3 195.4 69.5 195.2 69.5 L 193.8 69.5 C 193.5 69.5 193.4 69.4 193.4 69.1 L 193.4 60.5 C 193.4 60.2 193.5 60.1 193.8 60.1 L 195.2 60.1 C 195.5 60.1 195.5 60.3 195.5 60.5 L 195.5 69.1 Z" fill="#FFFFFF"/><path d=" M 201 69.6 C 200 69.6 198.8 69.5 198.1 69.2 C 197.7 69 197.6 68.9 197.7 68.6 L 197.8 68 C 197.9 67.7 198 67.7 198.3 67.7 C 199.1 67.8 200.4 67.9 201 67.9 C 202.2 67.9 202.7 67.6 202.7 66.8 C 202.7 65.9 202.4 65.7 201.2 65.6 C 199.3 65.3 197.7 64.9 197.7 62.9 C 197.7 61 199.1 60 201.3 60 C 202.1 60 203.4 60.1 204.2 60.4 C 204.5 60.5 204.7 60.7 204.6 61 L 204.4 61.7 C 204.3 62 204.2 62 203.9 62 C 203.1 61.9 202 61.8 201.3 61.8 C 200.1 61.8 199.8 62.1 199.8 62.9 C 199.8 63.6 200.3 63.7 201.4 63.9 C 203.2 64.2 204.8 64.5 204.8 66.8 C 204.9 68.9 203 69.6 201 69.6 Z" fill="#FFFFFF"/><path d=" M 209.7 69.6 C 208.7 69.6 207.5 69.5 206.8 69.2 C 206.4 69 206.3 68.9 206.4 68.6 L 206.5 68 C 206.6 67.7 206.7 67.7 207 67.7 C 207.8 67.8 209.1 67.9 209.7 67.9 C 210.9 67.9 211.4 67.6 211.4 66.8 C 211.4 65.9 211.1 65.7 209.9 65.6 C 208 65.3 206.4 64.9 206.4 62.9 C 206.4 61 207.8 60 210 60 C 210.8 60 212.1 60.1 212.9 60.4 C 213.2 60.5 213.4 60.7 213.3 61 L 213.1 61.7 C 213 62 212.9 62 212.6 62 C 211.8 61.9 210.7 61.8 210 61.8 C 208.8 61.8 208.5 62.1 208.5 62.9 C 208.5 63.6 209 63.7 210.1 63.9 C 211.9 64.2 213.5 64.5 213.5 66.8 C 213.6 68.9 211.7 69.6 209.7 69.6 Z" fill="#FFFFFF"/><path d=" M 216.7 58.8 C 215.7 58.8 215.6 58.2 215.6 57.7 C 215.6 57.1 215.8 56.6 216.7 56.6 C 217.6 56.6 217.8 57 217.8 57.7 C 217.8 58.2 217.6 58.8 216.7 58.8 Z M 217.7 69.1 C 217.7 69.3 217.6 69.5 217.4 69.5 L 216 69.5 C 215.7 69.5 215.6 69.4 215.6 69.1 L 215.6 60.5 C 215.6 60.2 215.7 60.1 216 60.1 L 217.4 60.1 C 217.7 60.1 217.7 60.3 217.7 60.5 L 217.7 69.1 Z" fill="#FFFFFF"/><path d=" M 223.9 69.6 C 220.1 69.6 219.8 66.8 219.8 64.6 C 219.8 62.8 220.2 59.9 223.9 59.9 C 227.6 59.9 228.1 62.4 228.1 64.6 C 228.1 66.8 227.9 69.6 223.9 69.6 Z M 224 61.8 C 222.4 61.8 222 62.8 222 64.8 C 222 66.8 222.4 67.8 224 67.8 C 225.7 67.8 226.1 66.8 226.1 64.8 C 226 62.8 225.7 61.8 224 61.8 Z" fill="#FFFFFF"/><path d=" M 237.7 69.4 L 236.3 69.4 C 236.1 69.4 235.9 69.3 235.9 69 L 235.9 63.7 C 235.9 62.6 235.6 61.8 234.5 61.8 C 233.7 61.8 232.4 62.4 231.9 62.7 L 231.9 69.1 C 231.9 69.3 231.8 69.5 231.5 69.5 L 230.1 69.5 C 229.8 69.5 229.7 69.4 229.7 69.1 L 229.7 60.5 C 229.7 60.3 229.8 60.1 230.1 60.1 L 231.5 60.1 C 231.8 60.1 231.9 60.2 231.9 60.5 L 231.9 61.1 C 231.9 61.1 231.9 61.1 232 61.1 C 232.7 60.6 234 60 235.2 60 C 237.8 60 238 61.7 238 63.6 L 238 69.1 C 238.1 69.3 238 69.4 237.7 69.4 Z" fill="#FFFFFF"/></g><path d=" M 250.1 69.4 L 250.1 32.2 L 246.8 32.2 L 246.8 69.4 L 250.1 69.4 Z" fill="#FFFFFF"/><g><path d=" M 45 21.9 C 48.2 21 51.1 19.7 53.7 17.9 C 56.2 16.2 58.5 13.8 60.8 11.1 C 62.3 9.4 63.8 7.2 65.2 5 L 65.2 4 C 63.5 6.5 61.8 8.7 60.1 10.6 C 57.8 13.1 55.4 15.2 53 16.8 C 50.5 18.4 47.7 19.6 44.6 20.4 C 43.2 20.7 41.8 21 40.1 21.3 C 39 21.5 37.9 21.6 36.8 21.7 C 36.4 21.7 -0.1 25.6 -0.1 25.6 L -0.1 28.2 C -0.1 28.2 39.2 23.1 40.3 22.9 C 42.1 22.6 43.6 22.3 45 21.9 Z" fill="#FFFFFF"/><path d=" M 36.9 27.3 C 37.9 27.2 38.9 27.1 39.9 26.9 C 41.6 26.7 43.1 26.4 44.5 26.1 C 47.8 25.4 50.7 24.2 53.3 22.6 C 55.8 21.1 58.1 18.9 60.5 16.3 C 62 14.7 63.7 12.4 65.2 10.2 L 65.2 9.3 C 63.4 11.8 61.6 13.9 59.9 15.7 C 57.5 18.2 55.1 20.1 52.7 21.5 C 50.2 22.9 47.4 24 44.3 24.6 C 43 24.9 41.5 25.1 39.8 25.3 C 38.8 25.4 37.8 25.5 36.8 25.6 C 36.3 25.6 35.7 25.7 35.2 25.7 C 23.2 26.8 11.2 27.9 0 29 L 0 31.6 C 11.3 30.2 23.4 28.8 35.4 27.4 C 35.9 27.4 36.4 27.3 36.9 27.3 Z" fill="#FFFFFF"/><path d=" M 59.6 31.5 C 61.9 29.8 65.2 26.5 65.2 26.4 L 65.2 25.5 C 63.1 27.6 61.9 28.7 59.6 30.3 C 58.8 30.9 57.8 31.3 56.7 31.8 L 51.8 31.8 C 51.9 31.7 52.1 31.7 52.2 31.6 C 54.9 30.4 57.6 28.5 60.1 26.3 C 61.8 24.9 63.5 23 65.2 21 L 65.2 20.1 C 63 22.4 61.2 24.2 59.3 25.7 C 56.8 27.7 54.9 29.1 51.9 30.3 C 50.3 30.9 48.7 31.3 47 31.6 L 31.1 31.6 L 34.8 31.2 L 39.3 30.7 C 41 30.5 42.5 30.3 43.8 30 C 47.2 29.4 50 28.4 52.6 27.1 C 55.2 25.8 57.8 23.5 60.3 21.2 C 61.9 19.6 63.5 17.6 65.2 15.5 L 65.2 14.6 C 63.3 17 61.4 19.1 59.6 20.8 C 57.2 23 54.7 24.8 52.2 26 C 49.7 27.2 46.9 28.1 43.7 28.6 C 42.4 28.8 40.9 29 39.3 29.2 L 0.1 32.4 L 0.1 35 L 27 32.1 L 27 33.8 L -0.1 35.8 L -0.1 38.4 L 27 35.8 L 27 37.6 C 23.4 37.8 19.9 38.1 16.3 38.3 L -0.1 39.4 L -0.1 42 L 16.5 40.5 C 19.8 40.2 23.4 39.9 27.1 39.6 L 27.1 41.5 C 18.4 41.9 9.5 42.4 0 42.9 L 0 45.5 C 9.1 44.8 18.1 44.1 27.1 43.4 L 27.1 45.3 C 18.2 45.7 9.2 46 0 46.4 L 0 49 C 9.1 48.2 18 47.6 27 47 L 27 48.9 L -0.1 49.6 L -0.1 52.2 L 27 50.7 L 27 52.6 L -0.1 53.1 L -0.1 55.7 L 27 54.5 L 27 56.3 C 18 56.4 9 56.4 -0.1 56.5 L -0.1 59 C 8.6 58.7 17.8 58.4 27 58.1 L 27 60 C 23.1 60 19.2 60 15.5 60 L -0.1 60 L -0.1 62.6 L 15.6 62.2 C 19.3 62.1 23.1 62 27.1 61.9 L 27.1 63.9 C 18.1 63.8 9.1 63.6 0 63.4 L 0 66 C 8.8 65.9 17.9 65.9 27.1 65.8 L 27.1 67.7 L 0 67 L 0 69.5 L 27 69.5 L 27 70 L 84.2 70 L 84.2 31.7 L 59.3 31.7 C 59.4 31.6 59.5 31.6 59.6 31.5 Z M 68.3 59.4 L 66.7 58.2 L 65.1 59.4 L 65.7 57.5 L 64.1 56.3 L 66.1 56.3 L 66.7 54.4 L 67.3 56.3 L 69.3 56.3 L 67.7 57.5 L 68.3 59.4 Z M 70.1 52.9 L 68.5 51.7 L 66.9 52.9 L 67.5 51 L 65.9 49.8 L 67.9 49.8 L 68.5 47.9 L 69.1 49.8 L 71.1 49.8 L 69.5 51 L 70.1 52.9 Z M 66.7 41.7 L 67.3 43.6 L 69.3 43.6 L 67.7 44.8 L 68.3 46.7 L 66.7 45.5 L 65.1 46.7 L 65.7 44.8 L 64.1 43.6 L 66.1 43.6 L 66.7 41.7 Z M 61.4 38.8 L 62 37 L 62.6 38.9 L 64.6 38.9 L 63 40 L 63.6 41.9 L 62 40.8 L 60.4 42 L 61 40.1 L 59.4 38.9 L 61.4 38.9 Z M 61.4 60.9 L 62 59 L 62.6 60.9 L 64.6 60.9 L 63 62.1 L 63.6 64 L 62 62.9 L 60.4 64.1 L 61 62.2 L 59.4 61 L 61.4 61 Z M 48.6 38.9 L 49.2 37 L 49.8 38.9 L 51.8 38.9 L 50.2 40.1 L 50.8 42 L 49.2 40.8 L 47.6 42 L 48.2 40.1 L 46.6 38.9 L 48.6 38.9 Z M 44.1 43.5 L 44.7 41.6 L 45.3 43.5 L 47.3 43.5 L 45.7 44.7 L 46.3 46.6 L 44.7 45.4 L 43.1 46.6 L 43.7 44.7 L 42.1 43.5 L 44.1 43.5 Z M 40.4 49.8 L 42.4 49.8 L 43 48 L 43.6 49.9 L 45.6 49.9 L 44 51 L 44.6 52.9 L 43 51.8 L 41.4 53 L 42 51 L 40.4 49.8 Z M 44.7 58.3 L 43.1 59.5 L 43.7 57.6 L 42.1 56.4 L 44.1 56.4 L 44.7 54.5 L 45.3 56.4 L 47.3 56.4 L 45.7 57.6 L 46.3 59.5 L 44.7 58.3 Z M 50.9 64.1 L 49.3 62.9 L 47.7 64.1 L 48.3 62.2 L 46.7 61 L 48.7 61 L 49.3 59.1 L 49.9 61 L 51.9 61 L 50.3 62.2 L 50.9 64.1 Z M 55.1 37.1 L 55.7 35.2 L 56.3 37.1 L 58.3 37.1 L 56.7 38.3 L 57.3 40.3 L 55.7 39.1 L 54.1 40.3 L 54.7 38.3 L 53.1 37.1 L 55.1 37.1 Z M 57.3 65.7 L 55.7 64.5 L 54.1 65.7 L 54.7 63.8 L 53.1 62.6 L 55.1 62.6 L 55.7 60.7 L 56.3 62.6 L 58.3 62.6 L 56.7 63.8 L 57.3 65.7 Z" fill="#FFFFFF"/><path d=" M 120.1 34.1 C 111.4 32.3 109 29.5 106.8 26.1 C 104.7 22.7 92.9 4 92.9 4 L 92.9 8.4 C 92.9 8.4 104 24.3 106.7 28.1 C 109.9 32.6 112.8 33.1 119.9 34.7 C 127 36.3 132.5 37.5 132.5 37.5 L 132.5 36.8 C 132.6 36.8 128.8 35.9 120.1 34.1 Z" fill="#FFFFFF"/><path d=" M 120 46.1 C 126 47.1 132.6 48.2 132.6 48.2 L 132.6 47.6 C 132.6 47.6 125.6 46.5 120 45.5 C 114.2 44.5 110 43.2 106.7 39.8 C 103.6 36.6 92.9 25.4 92.9 25.4 L 92.9 28.7 C 92.9 28.7 103.6 38.8 106.6 41.5 C 110 44.6 114.2 45.1 120 46.1 Z" fill="#FFFFFF"/><path d=" M 120 49 C 126 49.9 132.6 51 132.6 51 L 132.6 50.3 C 132.6 50.3 127.4 49.5 120.1 48.2 C 112.8 46.9 110.1 46 106.8 43 C 103.2 39.8 93 30.3 93 30.3 L 93 33.4 C 93 33.4 102.7 41.4 106.8 44.7 C 110.3 47.6 114.1 48 120 49 Z" fill="#FFFFFF"/><path d=" M 106.7 46.6 C 104.5 45 92.9 35.8 92.9 35.8 L 92.9 38.6 C 92.9 38.6 102.3 45.2 106.7 48.2 C 111.2 51.2 115 51.5 120 52.1 C 125 52.7 132.5 53.8 132.5 53.8 L 132.5 53.1 C 132.5 53.1 128.3 52.5 120 51.3 C 111.8 50.1 108.9 48.2 106.7 46.6 Z" fill="#FFFFFF"/><path d=" M 106.8 49.9 C 104.6 48.7 92.9 40.9 92.9 40.9 L 92.9 43.5 C 92.9 43.5 102.6 49.2 106.7 51.4 C 110.8 53.6 114.5 54.4 120 55 C 125.5 55.6 132.5 56.4 132.5 56.4 L 132.5 55.7 C 132.5 55.7 128.5 55.2 120 54.1 C 111.6 53.1 109 51.1 106.8 49.9 Z" fill="#FFFFFF"/><path d=" M 120.1 57.8 C 126.6 58.4 132.6 59.1 132.6 59.1 L 132.6 58.5 C 132.6 58.5 126 57.8 120.1 57.1 C 114 56.4 110.7 55.4 106.8 53.5 C 103.3 51.8 93 46.2 93 46.2 L 93 48.7 C 93 48.7 102.6 53.2 106.8 55 C 111.4 56.9 113.6 57.2 120.1 57.8 Z" fill="#FFFFFF"/><path d=" M 106.8 57.1 C 101.1 54.8 92.9 51.3 92.9 51.3 L 92.9 53.6 C 92.9 53.6 101.8 56.7 106.7 58.3 C 111.5 59.9 114.1 60.1 120 60.6 C 126 61.1 132.5 61.7 132.5 61.7 L 132.5 61.1 C 132.5 61.1 121.5 60 120 59.8 C 116.7 59.5 112.4 59.3 106.8 57.1 Z" fill="#FFFFFF"/><path d=" M 106.8 60.7 C 101.2 59.2 93 56.7 93 56.7 L 93 58.9 C 93 58.9 103.1 61.3 106.8 62.1 C 110.1 62.8 114.6 63.2 120.1 63.6 C 127 64.1 132.6 64.5 132.6 64.5 L 132.6 63.9 C 132.6 63.9 122.7 63.1 120.1 62.9 C 117.5 62.8 112.4 62.2 106.8 60.7 Z" fill="#FFFFFF"/><path d=" M 106.8 64.3 C 99.7 63.1 93 62 93 62 L 93 64 C 93 64 100.2 64.9 106.8 65.6 C 109.7 65.9 114.9 66.2 120.1 66.5 C 125.1 66.8 132.6 67.2 132.6 67.2 L 132.6 66.6 C 132.6 66.6 120.8 65.8 120.1 65.8 C 119.3 65.7 112.1 65.2 106.8 64.3 Z" fill="#FFFFFF"/><path d=" M 92.9 67.4 L 92.9 69.5 L 132.5 69.5 L 132.5 68.9 C 132.5 68.9 109.9 68 106.7 67.9 C 103.5 67.8 92.9 67.4 92.9 67.4 Z" fill="#FFFFFF"/><path d=" M 106.7 29.2 C 105.1 27 93 9.3 93 9.3 L 93 13.3 C 93.5 13.9 103.9 27.5 106.8 31.3 C 110.1 35.5 115.2 36.5 120.1 37.5 C 125 38.6 132.6 40 132.6 40 L 132.6 39.4 C 132.6 39.4 122.5 37.4 120.1 36.9 C 110.5 34.9 108.3 31.4 106.7 29.2 Z" fill="#FFFFFF"/><path d=" M 120.1 40.4 C 125.6 41.4 132.6 42.7 132.6 42.7 L 132.6 42.1 C 132.6 42.1 124.6 40.6 120.1 39.7 C 112.2 38.2 109 35.7 106.7 32.7 C 104.4 29.7 93 14.6 93 14.6 L 93 18.4 C 93.5 19 103.9 31.4 106.7 34.6 C 110 38.4 114.5 39.4 120.1 40.4 Z" fill="#FFFFFF"/><path d=" M 106.7 37.8 C 111.1 42.1 115.2 42.4 120.1 43.3 C 125 44.2 132.6 45.6 132.6 45.6 L 132.6 45 C 132.6 45 123.3 43.4 120.1 42.7 C 111.9 41.1 110.2 39.8 106.8 36 C 104.6 33.6 93.5 20.5 93 19.9 L 93 23.4 C 92.9 23.4 103.3 34.5 106.7 37.8 Z" fill="#FFFFFF"/></g></svg>