<?xml version="1.0" encoding="UTF-8"?>
<svg xmlns="http://www.w3.org/2000/svg" id="line_icons" data-name="line icons" viewBox="0 0 74 74" width="512" height="512"><path d="M47.183,55.958H26.817a1,1,0,0,1-.974-.772,23.875,23.875,0,0,0-5.106-9.565,21.273,21.273,0,0,1-4.979-13.44,1,1,0,0,1,1-1.012H57.242a1,1,0,0,1,1,1.012,21.272,21.272,0,0,1-4.9,13.334,24.789,24.789,0,0,0-5.182,9.674A1,1,0,0,1,47.183,55.958Zm-19.59-2H46.409A27.459,27.459,0,0,1,51.8,44.234a19.271,19.271,0,0,0,4.4-11.065H17.8a19.252,19.252,0,0,0,4.47,11.162A26.432,26.432,0,0,1,27.593,53.958Z" fill="#27B267" stroke="#27B267" stroke-width="2px"/><path d="M40.976,68.317H33.024a7.215,7.215,0,0,1-7.207-7.207V54.958a1,1,0,0,1,1-1H47.183a1,1,0,0,1,1,1V61.11A7.215,7.215,0,0,1,40.976,68.317ZM27.817,55.958V61.11a5.213,5.213,0,0,0,5.207,5.207h7.952a5.213,5.213,0,0,0,5.207-5.207V55.958Z" fill="#27B267" stroke="#27B267" stroke-width="2px"/><path d="M39.524,72H34.476a2.745,2.745,0,0,1-2.6-1.857l-.852-2.5A1,1,0,1,1,32.918,67l.853,2.495a.755.755,0,0,0,.7.5h5.048a.761.761,0,0,0,.709-.515L41.082,67a1,1,0,0,1,1.892.646l-.852,2.5A2.768,2.768,0,0,1,39.524,72Z" fill="#27B267" stroke="#27B267" stroke-width="2px"/><path d="M19.009,33.169a1,1,0,0,1-.908-.581,5.464,5.464,0,0,1-.5-2.3,5.4,5.4,0,0,1,1.9-4.132,5.241,5.241,0,0,1-.1-1.007,5.316,5.316,0,0,1,3.467-5.079,5.109,5.109,0,0,1-.038-.62,5.248,5.248,0,0,1,5.1-5.371,4.808,4.808,0,0,1,1.658.3,5.062,5.062,0,0,1,4.424-2.689A4.076,4.076,0,0,1,38,15.833V32.169a1,1,0,0,1-2,0V15.833a2.094,2.094,0,0,0-1.955-2.149,3.077,3.077,0,0,0-2.974,2.342,1,1,0,0,1-1.543.553,2.78,2.78,0,0,0-1.594-.5,3.249,3.249,0,0,0-3.1,3.371,3.015,3.015,0,0,0,.175,1.026,1,1,0,0,1-.833,1.339,3.241,3.241,0,0,0-2.771,3.334,3.076,3.076,0,0,0,.183,1.068,1,1,0,0,1-.423,1.2A3.382,3.382,0,0,0,19.6,30.284a3.477,3.477,0,0,0,.318,1.466,1,1,0,0,1-.908,1.419Z" fill="#27B267" stroke="#27B267" stroke-width="2px"/><path d="M55,33.169a1,1,0,0,1-.913-1.407,3.527,3.527,0,0,0,.315-1.443,3.36,3.36,0,0,0-1.572-2.9,1,1,0,0,1-.419-1.22,2.875,2.875,0,0,0,.176-1.052,3.269,3.269,0,0,0-2.744-3.336,1,1,0,0,1-.839-1.268,3.659,3.659,0,0,0,.162-1.051,3.277,3.277,0,0,0-3.109-3.415,2.781,2.781,0,0,0-1.595.5,1,1,0,0,1-1.545-.558,3.084,3.084,0,0,0-2.934-2.337A2.1,2.1,0,0,0,38,15.833V32.169a1,1,0,0,1-2,0V15.833a4.078,4.078,0,0,1,3.93-4.149A5.076,5.076,0,0,1,44.4,14.372a4.791,4.791,0,0,1,1.656-.3,5.275,5.275,0,0,1,5.109,5.415,5.16,5.16,0,0,1-.032.582,5.344,5.344,0,0,1,3.453,5.073,5.4,5.4,0,0,1-.092,1.008,5.435,5.435,0,0,1,1.907,4.166,5.51,5.51,0,0,1-.488,2.257A1,1,0,0,1,55,33.169Z" fill="#27B267" stroke="#27B267" stroke-width="2px"/><path d="M30.575,22.5a.91.91,0,0,1-.1-.005,1,1,0,0,1-.892-1.1,2.789,2.789,0,0,1,1.065-2.038,3.247,3.247,0,0,1,2.366-.526,1,1,0,0,1-.344,1.97,1.255,1.255,0,0,0-.824.157c-.056.043-.226.175-.274.641A1,1,0,0,1,30.575,22.5Z" fill="#27B267" stroke="#27B267" stroke-width="2px"/><path d="M27.8,26.883a1,1,0,0,1-.778-.371,1.257,1.257,0,0,0-.722-.428c-.068-.006-.284-.018-.63.3a1,1,0,0,1-1.357-1.469,2.778,2.778,0,0,1,2.148-.824,3.249,3.249,0,0,1,2.122,1.171,1,1,0,0,1-.783,1.621Z" fill="#27B267" stroke="#27B267" stroke-width="2px"/><path d="M31.642,32.607a1,1,0,0,1-.9-.571,2.8,2.8,0,0,1-.148-2.3,3.26,3.26,0,0,1,1.749-1.678,1,1,0,0,1,.729,1.863,1.262,1.262,0,0,0-.622.562c-.026.066-.1.267.1.691a1,1,0,0,1-.9,1.429Z" fill="#27B267" stroke="#27B267" stroke-width="2px"/><path d="M43.425,22.5a1,1,0,0,1-.994-.9c-.048-.466-.218-.6-.274-.641a1.254,1.254,0,0,0-.826-.156,1.007,1.007,0,0,1-1.145-.823.994.994,0,0,1,.8-1.148,3.263,3.263,0,0,1,2.366.526A2.789,2.789,0,0,1,44.42,21.4a1,1,0,0,1-.892,1.1A.91.91,0,0,1,43.425,22.5Z" fill="#27B267" stroke="#27B267" stroke-width="2px"/><path d="M46.2,26.883a1,1,0,0,1-.783-1.621,3.249,3.249,0,0,1,2.122-1.171,2.783,2.783,0,0,1,2.148.824,1,1,0,0,1-1.357,1.469c-.349-.322-.565-.3-.637-.3a1.274,1.274,0,0,0-.709.42A1,1,0,0,1,46.2,26.883Z" fill="#27B267" stroke="#27B267" stroke-width="2px"/><path d="M42.358,32.607a1,1,0,0,1-.9-1.429c.2-.424.125-.625.1-.691a1.262,1.262,0,0,0-.624-.563,1,1,0,0,1-.553-1.3.994.994,0,0,1,1.284-.565A3.26,3.26,0,0,1,43.41,29.74a2.8,2.8,0,0,1-.148,2.3A1,1,0,0,1,42.358,32.607Z" fill="#27B267" stroke="#27B267" stroke-width="2px"/><path d="M27.162,11.642a.993.993,0,0,1-.547-.164L24.043,9.8a1,1,0,1,1,1.1-1.673L27.71,9.805a1,1,0,0,1-.548,1.837Z"/><path d="M33.282,7.21a1,1,0,0,1-.949-.685l-.972-2.918a1,1,0,0,1,1.9-.631l.971,2.918a1,1,0,0,1-.948,1.316Z" fill="#27B267" stroke="#27B267" stroke-width="2px"/><path d="M40.718,7.21a1,1,0,0,1-.948-1.316l.971-2.918a1,1,0,0,1,1.9.631l-.972,2.918A1,1,0,0,1,40.718,7.21Z" fill="#27B267" stroke="#27B267" stroke-width="2px"/><path d="M46.838,11.642a1,1,0,0,1-.548-1.837l2.571-1.683a1,1,0,1,1,1.1,1.673l-2.572,1.683A.993.993,0,0,1,46.838,11.642Z" fill="#27B267" stroke="#27B267" stroke-width="2px"/></svg>
