<svg version="1.1" id="Capa_1" xmlns="http://www.w3.org/2000/svg" xmlns:xlink="http://www.w3.org/1999/xlink" x="0px" y="0px"
	 viewBox="0 0 511.999 511.999" style="enable-background:new 0 0 511.999 511.999;" xml:space="preserve">
<g>
	<g>
		<path d="M488.468,168.339h-32.064c-4.142,0-7.5,3.358-7.5,7.5c0,4.142,3.358,7.5,7.5,7.5h32.064c4.705,0,8.532,3.828,8.532,8.532
			v224.452c0,4.705-3.828,8.532-8.532,8.532h-352.71c-4.705,0-8.533-3.828-8.533-8.532v-80.161c0-4.142-3.358-7.5-7.5-7.5
			c-4.142,0-7.5,3.358-7.5,7.5v80.161c0,12.976,10.557,23.532,23.533,23.532h3.897l-10.605,21.21
			c-1.163,2.325-1.039,5.086,0.328,7.297s3.781,3.557,6.38,3.557h24.048c1.989,0,3.897-0.79,5.303-2.197l29.868-29.868h234.271
			l29.868,29.868c1.406,1.407,3.314,2.197,5.303,2.197h24.048c2.599,0,5.013-1.346,6.38-3.557s1.491-4.972,0.328-7.297
			l-10.605-21.21h3.897c12.976,0,23.532-10.557,23.532-23.532V191.87C512,178.896,501.443,168.339,488.468,168.339z M156.7,456.919
			h-8.807l8.532-17.064h17.339L156.7,456.919z M467.526,456.919l-17.064-17.064H467.8l8.533,17.064H467.526z" fill="#27B267" stroke="#27B267" stroke-width="10px"/>
	</g>
</g>
<g>
	<g>
		<path d="M472.436,392.79H151.791c-4.143,0-7.5,3.357-7.5,7.5c0,4.142,3.358,7.5,7.5,7.5h320.645c4.142,0,7.5-3.358,7.5-7.5
			C479.936,396.148,476.578,392.79,472.436,392.79z" fill="#27B267" stroke="#27B267" stroke-width="10px"/>
	</g>
</g>
<g>
	<g>
		<path d="M400.291,104.208H31.548C14.152,104.208,0,118.362,0,135.758v144.29c0,17.396,14.152,31.548,31.548,31.548H400.29
			c17.397,0.001,31.549-14.152,31.549-31.548v-144.29C431.839,118.362,417.687,104.208,400.291,104.208z M416.838,280.047
			c0,9.125-7.423,16.548-16.548,16.548H31.548C22.423,296.596,15,289.172,15,280.047v-144.29c0-9.125,7.423-16.549,16.548-16.549
			H400.29c9.125,0,16.548,7.424,16.548,16.549V280.047z" fill="#27B267" stroke="#27B267" stroke-width="10px"/>
	</g>
</g>
<g>
	<g>
		<path d="M135.758,240.484H95.161v-72.661c0-4.142-3.358-7.5-7.5-7.5c-4.142,0-7.5,3.358-7.5,7.5v80.161c0,4.142,3.358,7.5,7.5,7.5
			h48.097c4.142,0,7.5-3.358,7.5-7.5C143.258,243.841,139.9,240.484,135.758,240.484z" fill="#27B267" stroke="#27B267" stroke-width="10px"/>
	</g>
</g>
<g>
	<g>
		<path d="M166.486,160.323c-4.142,0-7.5,3.358-7.5,7.5v80.161c0,4.142,3.358,7.5,7.5,7.5c4.142,0,7.5-3.358,7.5-7.5v-80.161
			C173.986,163.68,170.628,160.323,166.486,160.323z" fill="#27B267" stroke="#27B267" stroke-width="10px"/>
	</g>
</g>
<g>
	<g>
		<path d="M270.434,160.982c-3.778-1.701-8.218-0.016-9.917,3.762l-29.233,64.962l-29.233-64.962
			c-1.699-3.777-6.139-5.461-9.917-3.762c-3.777,1.7-5.461,6.14-3.762,9.917l36.073,80.161c1.211,2.691,3.888,4.422,6.839,4.422
			c2.951,0,5.628-1.731,6.839-4.422l36.072-80.161C275.895,167.122,274.211,162.682,270.434,160.982z" fill="#27B267" stroke="#27B267" stroke-width="10px"/>
	</g>
</g>
<g>
	<g>
		<path d="M352.193,240.484H303.58v-25.081h40.597c4.142,0,7.5-3.358,7.5-7.5c0-4.142-3.358-7.5-7.5-7.5H303.58v-25.081h48.613
			v0.001c4.142,0,7.5-3.358,7.5-7.5c0-4.142-3.358-7.5-7.5-7.5H296.08c-4.142,0-7.5,3.358-7.5,7.5v80.161c0,4.142,3.358,7.5,7.5,7.5
			h56.113c4.142,0,7.5-3.358,7.5-7.5C359.693,243.841,356.335,240.484,352.193,240.484z" fill="#27B267" stroke="#27B267" stroke-width="10px"/>
	</g>
</g>
<g>
	<g>
		<path d="M400.291,72.145c-4.142,0-7.5,3.358-7.5,7.5c0,4.142,3.357,7.5,7.5,7.5c26.805,0,48.613,21.808,48.613,48.613
			c0,4.142,3.358,7.5,7.5,7.5c4.142,0,7.5-3.358,7.5-7.5C463.904,100.68,435.367,72.145,400.291,72.145z" fill="#27B267" stroke="#27B267" stroke-width="10px"/>
	</g>
</g>
<g>
	<g>
		<path d="M400.291,40.081c-4.142,0-7.5,3.358-7.5,7.5c0,4.142,3.357,7.5,7.5,7.5c44.485,0,80.677,36.192,80.677,80.678
			c0,4.142,3.358,7.5,7.5,7.5c4.142,0,7.5-3.358,7.5-7.5C495.968,83.002,453.048,40.081,400.291,40.081z" fill="#27B267" stroke="#27B267" stroke-width="10px"/>
	</g>
</g>
<g>
</g>
<g>
</g>
<g>
</g>
<g>
</g>
<g>
</g>
<g>
</g>
<g>
</g>
<g>
</g>
<g>
</g>
<g>
</g>
<g>
</g>
<g>
</g>
<g>
</g>
<g>
</g>
<g>
</g>
</svg>