<svg version="1.1" id="Capa_1" xmlns="http://www.w3.org/2000/svg" xmlns:xlink="http://www.w3.org/1999/xlink" x="0px" y="0px"
	 viewBox="0 0 512 512" style="enable-background:new 0 0 512 512;" xml:space="preserve">
<g>
	<g>
		<path d="M504.485,48.094H71.64c-4.15,0-7.515,3.365-7.515,7.515v120.736H7.515c-4.15,0-7.515,3.365-7.515,7.515v272.532
			c0,4.15,3.365,7.515,7.515,7.515H440.36c4.151,0,7.515-3.365,7.515-7.515v-56.611h56.611c4.151,0,7.515-3.365,7.515-7.515V55.609
			C512,51.458,508.636,48.094,504.485,48.094z M432.845,448.877H15.029V191.374h302.09c4.151,0,7.515-3.365,7.515-7.515
			c0-4.15-3.364-7.515-7.515-7.515h-172.66c3.136-5.213,5.265-10.998,6.235-17.033h274.728c0.979,6.148,3.146,11.903,6.247,17.033
			h-79.816c-4.151,0-7.515,3.365-7.515,7.515c0,4.15,3.364,7.515,7.515,7.515h80.992V448.877z M496.971,328.141v56.611h-49.096
			v-45.926c6.199-7.114,15.092-11.186,24.548-11.186c4.151,0,7.515-3.365,7.515-7.515v-128.25c0-4.15-3.364-7.515-7.515-7.515
			c-17.956,0-32.564-14.609-32.564-32.564c0-4.15-3.364-7.515-7.515-7.515H143.781c-4.15,0-7.515,3.365-7.515,7.515
			c0,9.135-3.874,17.906-10.627,24.066c-0.169,0.154-0.327,0.317-0.478,0.482H79.155v-49.096h417.816V328.141z M447.875,319.431
			V192.549c5.13,3.102,10.885,5.268,17.033,6.248v114.405C458.848,314.165,453.078,316.293,447.875,319.431z M496.971,112.219
			H79.155V95.186h417.816V112.219z M496.971,80.157H79.155V63.123h417.816V80.157z" fill="#27B267" stroke="#27B267" stroke-width="10px"/>
	</g>
</g>
<g>
	<g>
		<circle cx="472.423" cy="151.796" r="7.515" fill="#27B267" stroke="#27B267" stroke-width="10px"/>
	</g>
</g>
<g>
	<g>
		<circle cx="472.423" cy="360.204" r="7.515" fill="#27B267" stroke="#27B267" stroke-width="10px"/>
	</g>
</g>
<g>
	<g>
		<circle cx="103.703" cy="151.796" r="7.515" fill="#27B267" stroke="#27B267" stroke-width="10px"/>
	</g>
</g>
<g>
	<g>
		<path d="M408.297,248.485c-17.956,0-32.564-14.609-32.564-32.564c0-4.15-3.364-7.515-7.515-7.515H79.656
			c-4.15,0-7.515,3.365-7.515,7.515c0,17.955-14.609,32.564-32.564,32.564c-4.15,0-7.515,3.365-7.515,7.515v128.25
			c0,4.15,3.365,7.515,7.515,7.515c17.955,0,32.564,14.609,32.564,32.564c0,4.15,3.365,7.515,7.515,7.515h288.564
			c4.151,0,7.515-3.365,7.515-7.515c0-17.955,14.608-32.564,32.564-32.564c4.151,0,7.515-3.365,7.515-7.515V256
			C415.812,251.85,412.449,248.485,408.297,248.485z M400.783,377.329c-20.237,3.223-36.262,19.249-39.485,39.486H86.578
			c-3.224-20.237-19.25-36.263-39.486-39.487V262.922c20.237-3.223,36.262-19.249,39.486-39.486h274.72
			c3.223,20.237,19.249,36.262,39.485,39.486V377.329z" fill="#27B267" stroke="#27B267" stroke-width="10px"/>
	</g>
</g>
<g>
	<g>
		<path d="M256,303.593c4.151,0,7.515-3.365,7.515-7.515v-8.016c0-17.403-14.159-31.562-31.562-31.562h-0.501v-8.517
			c0-4.15-3.365-7.515-7.515-7.515s-7.515,3.365-7.515,7.515v8.691c-17.973,1.767-32.063,16.965-32.063,35.395
			c0,19.613,15.956,35.569,35.569,35.569h8.016c11.326,0,20.54,9.214,20.54,20.54s-9.214,20.54-20.54,20.54h-12.023
			c-9.116,0-16.532-7.417-16.532-16.532c0-4.15-3.365-7.515-7.515-7.515s-7.515,3.365-7.515,7.515
			c0,17.403,14.159,31.562,31.562,31.562h0.501v8.517c0,4.15,3.365,7.515,7.515,7.515s7.515-3.365,7.515-7.515v-8.691
			c17.973-1.767,32.063-16.965,32.063-35.395c0-19.613-15.956-35.57-35.569-35.57h-8.016c-11.326,0-20.54-9.214-20.54-20.54
			s9.214-20.54,20.54-20.54h12.023c9.116,0,16.532,7.417,16.532,16.532v8.016C248.485,300.228,251.85,303.593,256,303.593z" fill="#27B267" stroke="#27B267" stroke-width="10px"/>
	</g>
</g>
<g>
	<g>
		<circle cx="408.297" cy="215.922" r="7.515" fill="#27B267" stroke="#27B267" stroke-width="10px"/>
	</g>
</g>
<g>
	<g>
		<circle cx="408.297" cy="424.329" r="7.515" fill="#27B267" stroke="#27B267" stroke-width="10px"/>
	</g>
</g>
<g>
	<g>
		<circle cx="39.577" cy="215.922" r="7.515" fill="#27B267" stroke="#27B267" stroke-width="10px"/>
	</g>
</g>
<g>
	<g>
		<circle cx="39.577" cy="424.329" r="7.515" fill="#27B267" stroke="#27B267" stroke-width="10px"/>
	</g>
</g>
<g>
</g>
<g>
</g>
<g>
</g>
<g>
</g>
<g>
</g>
<g>
</g>
<g>
</g>
<g>
</g>
<g>
</g>
<g>
</g>
<g>
</g>
<g>
</g>
<g>
</g>
<g>
</g>
<g>
</g>
</svg>