<svg height="512" viewBox="0 0 64 64" width="512" xmlns="http://www.w3.org/2000/svg"><g id="Video_Chat" data-name="Video Chat"><path d="m26 42a3 3 0 0 0 3-3h-2a1 1 0 0 1 -2 0h-2a3 3 0 0 0 3 3z" fill="#27B267" stroke="#27B267" stroke-width="0.8px"/><path d="m55 20c0-3.909-3.347-7.235-8-8.475v-4.525a5.006 5.006 0 0 0 -5-5h-28a5.006 5.006 0 0 0 -5 5v50a5.006 5.006 0 0 0 5 5h28a5.006 5.006 0 0 0 5-5v-28.519c4.655-1.238 8-4.57 8-8.481zm-34-16h14v1a1 1 0 0 1 -1 1h-12a1 1 0 0 1 -1-1zm11 31h-1.586l-1.707-1.707a1 1 0 0 0 -1.262-.125l-2.745 1.832h-4.7v-2a6 6 0 0 1 12 0zm-11 2h4a1.006 1.006 0 0 0 .555-.168l2.318-1.545 1.42 1.42a1 1 0 0 0 .707.293h1v1a5 5 0 0 1 -10 0zm5 8a6.956 6.956 0 0 0 2-.3v.881l-2 2-2-2v-.881a6.956 6.956 0 0 0 2 .3zm-3.245 2.169 2.538 2.538a1 1 0 0 0 1.414 0l2.538-2.538 3.971 1.552a.868.868 0 0 0 .1.033 5.026 5.026 0 0 1 3.684 4.826v6.42h-3v-5h-2v5h-12v-5h-2v5h-3v-6.42a5.026 5.026 0 0 1 3.686-4.826.868.868 0 0 0 .1-.033zm22.245 9.831a3 3 0 0 1 -3 3h-3v-6.42a7.03 7.03 0 0 0 -5.1-6.74l-3.9-1.523v-1.581a6.991 6.991 0 0 0 3-5.736v-1a1 1 0 0 0 1-1v-3a8 8 0 0 0 -16 0v3a1 1 0 0 0 1 1v1a6.991 6.991 0 0 0 3 5.736v1.581l-3.9 1.523a7.03 7.03 0 0 0 -5.1 6.74v6.236a3 3 0 0 1 -2-2.816v-50a3 3 0 0 1 3-3h5v1a3 3 0 0 0 3 3h12a3 3 0 0 0 3-3v-1h5a3 3 0 0 1 3 3v4.135a15.978 15.978 0 0 0 -2-.135c-6.617 0-12 4.038-12 9 0 3.574 2.723 6.725 7 8.182v3.818a1 1 0 0 0 1.707.707l3.712-3.707a15.7 15.7 0 0 0 1.581-.135zm-2-30a1 1 0 0 0 -.707.293l-2.293 2.293v-2.14a1 1 0 0 0 -.727-.962c-3.752-1.067-6.273-3.672-6.273-6.484 0-3.86 4.486-7 10-7s10 3.14 10 7-4.486 7-10 7z" fill="#27B267" stroke="#27B267" stroke-width="0.8px"/><path d="m36 17h14v2h-14z" fill="#27B267" stroke="#27B267" stroke-width="0.8px"/><path d="m36 21h14v2h-14z" fill="#27B267" stroke="#27B267" stroke-width="0.8px"/><path d="m15 13h10v2h-10z" fill="#27B267" stroke="#27B267" stroke-width="0.8px"/><path d="m15 17h10v2h-10z" fill="#27B267" stroke="#27B267" stroke-width="0.8px"/><path d="m15 21h10v2h-10z" fill="#27B267" stroke="#27B267" stroke-width="0.8px"/></g></svg>